<?xml version="1.0" standalone="no"?>
<!DOCTYPE svg PUBLIC "-//W3C//DTD SVG 20010904//EN"
 "http://www.w3.org/TR/2001/REC-SVG-20010904/DTD/svg10.dtd">
<svg version="1.0" xmlns="http://www.w3.org/2000/svg"
 width="100.000000pt" height="100.000000pt" viewBox="0 0 100.000000 100.000000"
 preserveAspectRatio="xMidYMid meet">

<g transform="translate(0.000000,100.000000) scale(0.100000,-0.100000)"
fill="#000000" stroke="none">
<path d="M410 845 c-163 -46 -263 -177 -263 -345 0 -105 29 -178 102 -251 73
-73 146 -102 251 -102 106 0 175 28 250 103 75 75 103 144 103 250 0 105 -29
178 -102 251 -90 90 -223 126 -341 94z m233 -38 c68 -34 130 -96 165 -167 23
-47 27 -68 27 -140 0 -72 -4 -93 -27 -140 -35 -71 -97 -133 -167 -168 -48 -23
-69 -27 -141 -27 -73 0 -93 4 -141 28 -188 92 -255 320 -142 490 95 143 277
196 426 124z"/>
<path d="M473 803 c15 -2 39 -2 55 0 15 2 2 4 -28 4 -30 0 -43 -2 -27 -4z"/>
<path d="M418 793 c7 -3 16 -2 19 1 4 3 -2 6 -13 5 -11 0 -14 -3 -6 -6z"/>
<path d="M568 793 c7 -3 16 -2 19 1 4 3 -2 6 -13 5 -11 0 -14 -3 -6 -6z"/>
<path d="M355 773 c-44 -23 -104 -82 -126 -125 -29 -57 -22 -59 10 -3 34 59
60 84 121 119 49 28 44 35 -5 9z"/>
<path d="M637 769 c7 -7 15 -10 18 -7 3 3 -2 9 -12 12 -14 6 -15 5 -6 -5z"/>
<path d="M729 694 c17 -22 40 -63 51 -90 10 -27 19 -42 19 -34 1 27 -46 114
-74 140 -27 24 -27 23 4 -16z"/>
<path d="M455 681 c-42 -19 -66 -57 -75 -122 -11 -78 2 -129 43 -170 l28 -29
-55 -24 c-41 -18 -57 -31 -62 -50 -3 -14 -9 -26 -13 -26 -13 0 -59 54 -85 100
-28 50 -35 48 -10 -3 23 -45 82 -105 126 -128 43 -22 66 -25 26 -3 -18 9 -28
23 -28 38 0 28 15 42 65 59 56 20 67 42 34 70 -56 47 -70 131 -37 220 12 30
53 57 88 57 35 0 76 -27 88 -57 32 -86 17 -176 -36 -220 -34 -28 -23 -50 33
-70 52 -18 67 -32 63 -62 -2 -20 -13 -29 -48 -43 -25 -9 -38 -17 -30 -17 30
-1 116 47 152 85 37 39 78 115 77 144 0 8 -9 -8 -20 -36 -17 -46 -81 -134 -97
-134 -4 0 -13 13 -20 29 -9 20 -28 35 -63 50 l-51 21 29 29 c41 41 54 92 43
170 -7 51 -15 71 -38 94 -31 31 -91 44 -127 28z"/>
<path d="M201 574 c0 -11 3 -14 6 -6 3 7 2 16 -1 19 -3 4 -6 -2 -5 -13z"/>
<path d="M193 500 c0 -30 2 -43 4 -27 2 15 2 39 0 55 -2 15 -4 2 -4 -28z"/>
<path d="M803 500 c0 -30 2 -43 4 -27 2 15 2 39 0 55 -2 15 -4 2 -4 -28z"/>
<path d="M201 424 c0 -11 3 -14 6 -6 3 7 2 16 -1 19 -3 4 -6 -2 -5 -13z"/>
<path d="M418 203 c7 -3 16 -2 19 1 4 3 -2 6 -13 5 -11 0 -14 -3 -6 -6z"/>
<path d="M473 193 c15 -2 39 -2 55 0 15 2 2 4 -28 4 -30 0 -43 -2 -27 -4z"/>
</g>
</svg>
