<?xml version="1.0" standalone="no"?>
<!DOCTYPE svg PUBLIC "-//W3C//DTD SVG 20010904//EN"
 "http://www.w3.org/TR/2001/REC-SVG-20010904/DTD/svg10.dtd">
<svg version="1.0" xmlns="http://www.w3.org/2000/svg"
 width="185.000000pt" height="172.000000pt" viewBox="0 0 185.000000 172.000000"
 preserveAspectRatio="xMidYMid meet">

<g transform="translate(0.000000,172.000000) scale(0.100000,-0.100000)"
fill="#000000" stroke="none">
<path d="M527 1623 c-4 -3 -7 -28 -7 -55 0 -26 -4 -48 -9 -48 -5 0 -28 7 -51
15 -63 22 -82 19 -120 -20 -29 -30 -39 -35 -63 -29 -20 4 -34 1 -48 -12 -18
-16 -19 -35 -19 -508 0 -270 4 -497 8 -504 12 -17 613 -352 634 -352 9 0 20
-4 23 -10 10 -16 171 -12 223 6 26 8 180 91 342 182 l295 167 3 88 c2 73 0 87
-13 87 -12 0 -15 -14 -15 -69 0 -65 -2 -71 -27 -89 -33 -22 -542 -309 -566
-318 -16 -6 -17 29 -15 480 l3 487 285 161 c157 88 292 161 300 162 12 1 15
-17 15 -104 0 -445 5 -600 20 -600 13 0 15 47 15 365 0 358 0 365 -21 375 -11
6 -32 9 -47 5 -23 -5 -34 1 -66 34 l-38 39 -47 -14 c-99 -30 -91 -33 -91 30 0
31 -4 56 -9 56 -19 0 -102 -40 -158 -76 -113 -72 -194 -159 -250 -269 l-35
-69 -31 62 c-62 127 -174 237 -318 312 -79 41 -91 45 -102 33z m180 -124 c69
-48 193 -184 193 -214 0 -3 -27 17 -61 45 -33 27 -64 50 -69 50 -30 0 -10 -30
75 -113 52 -51 95 -99 95 -105 0 -36 -72 -5 -330 140 l-271 151 27 29 c15 15
35 28 43 28 9 0 65 -20 126 -45 123 -50 125 -51 125 -30 0 8 -22 26 -50 40
-47 24 -50 27 -50 65 l0 40 53 -26 c28 -15 71 -39 94 -55z m693 36 c0 -31 -4
-35 -55 -59 -74 -33 -185 -107 -240 -157 -51 -47 -58 -41 -19 17 54 81 141
157 246 214 29 16 56 26 60 24 4 -3 8 -20 8 -39z m191 -51 c23 -24 23 -26 6
-39 -10 -7 -132 -77 -271 -154 -179 -100 -262 -141 -285 -141 l-32 0 33 46
c80 111 265 234 448 297 62 22 73 21 101 -9z m-1036 -196 c149 -83 278 -158
287 -166 17 -14 18 -50 18 -488 0 -273 -4 -475 -9 -478 -5 -4 -141 68 -303
158 l-293 165 -3 486 c-2 462 -1 487 15 481 10 -4 140 -75 288 -158z m505
-213 l0 -36 -82 3 c-71 3 -83 6 -86 21 -8 41 4 47 88 47 l80 0 0 -35z m-2
-103 l3 -33 -83 3 c-71 3 -83 6 -86 21 -8 42 4 48 85 45 l78 -3 3 -33z m0
-355 l2 -288 -82 3 -83 3 -3 275 c-1 151 0 281 3 288 3 9 25 12 82 10 l78 -3
3 -288z m2 -352 l0 -36 -82 3 c-71 3 -83 6 -86 21 -8 41 4 47 88 47 l80 0 0
-35z m0 -105 l0 -31 -82 3 c-82 3 -83 3 -86 31 l-3 27 85 0 86 0 0 -30z"/>
<path d="M960 621 c0 -82 4 -152 9 -155 24 -15 31 26 29 160 -3 123 -5 139
-20 142 -17 3 -18 -9 -18 -147z"/>
<path d="M1409 1122 c-114 -64 -214 -123 -223 -131 -21 -18 -24 -169 -3 -177
8 -3 110 50 228 118 l214 123 3 84 c2 46 -1 88 -5 92 -5 5 -101 -44 -214 -109z
m191 8 c0 -31 -6 -42 -27 -58 -37 -25 -349 -202 -357 -202 -3 0 -6 21 -6 48
l0 47 187 107 c103 58 191 104 195 102 5 -3 8 -23 8 -44z"/>
</g>
</svg>
