<?xml version="1.0" standalone="no"?>
<!DOCTYPE svg PUBLIC "-//W3C//DTD SVG 20010904//EN"
 "http://www.w3.org/TR/2001/REC-SVG-20010904/DTD/svg10.dtd">
<svg version="1.0" xmlns="http://www.w3.org/2000/svg"
 width="324.000000pt" height="328.000000pt" viewBox="0 0 324.000000 328.000000"
 preserveAspectRatio="xMidYMid meet">

<g transform="translate(0.000000,328.000000) scale(0.100000,-0.100000)"
fill="#000000" stroke="none">
<path d="M2166 2961 l-27 -61 -44 0 c-45 0 -67 -13 -39 -24 9 -3 29 -6 45 -6
16 0 29 -2 29 -5 0 -2 -9 -28 -19 -57 -11 -29 -29 -85 -40 -124 -19 -63 -25
-72 -61 -93 l-40 -22 0 35 c0 47 -19 85 -44 92 -62 15 -78 10 -112 -34 -18
-23 -37 -58 -43 -76 -14 -54 -131 -209 -145 -195 -3 3 6 46 20 95 37 125 39
135 23 145 -33 21 -50 0 -83 -101 -12 -37 -117 -209 -127 -210 -13 0 -18 65
-9 105 31 132 40 165 59 214 12 30 44 83 71 116 78 100 96 151 68 187 -18 21
-63 31 -76 15 -10 -13 -102 -227 -123 -290 -9 -26 -30 -50 -67 -78 l-55 -41 6
37 c3 20 3 43 0 51 -9 24 -68 17 -102 -12 -17 -14 -31 -20 -31 -14 0 7 18 63
40 126 23 63 38 119 35 124 -9 15 -30 12 -48 -7 -22 -25 -90 -166 -118 -243
-12 -36 -30 -76 -38 -90 -23 -38 -101 -130 -111 -130 -8 0 8 64 44 182 12 40
13 48 1 58 -31 26 -49 7 -82 -90 -42 -124 -51 -192 -29 -226 27 -40 63 -29
106 33 48 69 54 74 46 36 -9 -41 8 -73 38 -73 l23 0 -18 -52 c-19 -57 -18 -62
23 -72 44 -10 99 66 158 219 20 53 109 165 131 165 4 0 -2 -28 -13 -62 -10
-35 -22 -90 -25 -124 -10 -105 45 -189 103 -156 10 5 23 33 31 62 7 29 21 69
31 89 l17 36 3 -45 c4 -52 25 -80 59 -80 22 0 51 38 150 198 21 35 28 18 9
-22 -30 -63 -12 -146 33 -146 22 0 101 91 136 158 26 50 70 92 95 92 6 0 9 -8
6 -17 -3 -10 -10 -49 -17 -86 -20 -117 3 -177 66 -177 38 0 52 14 61 59 l7 32
27 -32 c24 -29 32 -32 74 -31 59 3 95 21 136 69 18 21 34 34 36 28 23 -59 42
-81 75 -89 51 -12 82 -2 130 44 23 22 44 40 45 40 2 0 -3 -18 -11 -40 -18 -50
-12 -67 25 -75 40 -9 66 8 73 48 3 18 15 54 27 80 31 65 161 180 135 120 -68
-158 -71 -223 -10 -223 31 1 58 29 98 101 20 36 54 88 76 114 22 27 39 50 37
52 -9 9 -35 -13 -69 -60 -46 -63 -97 -120 -103 -115 -2 3 8 40 23 83 25 75 25
79 8 92 -30 22 -58 15 -119 -27 -31 -22 -59 -40 -62 -40 -3 0 1 12 9 28 29 56
67 143 67 153 0 6 8 23 19 37 10 15 31 56 46 91 26 62 26 66 9 78 -40 30 -52
18 -118 -119 -35 -73 -69 -150 -75 -170 -18 -54 -101 -177 -148 -219 -49 -44
-78 -55 -99 -38 -22 18 -11 65 36 167 60 128 100 175 100 117 0 -28 15 -34 24
-10 7 20 -28 55 -54 55 -31 0 -99 -67 -157 -158 -59 -91 -116 -152 -163 -177
-46 -24 -64 -14 -55 32 11 62 32 91 80 112 56 25 86 71 83 126 -3 37 -6 41
-47 55 l-43 15 -47 -51 c-26 -28 -64 -84 -85 -125 -92 -177 -103 -186 -112
-93 -4 44 2 62 61 182 36 74 63 137 60 142 -2 4 7 35 22 69 25 58 28 61 62 62
20 0 45 4 56 8 16 7 10 10 -27 16 l-48 7 5 37 c7 44 -2 59 -41 67 -29 6 -32 3
-58 -55z m-6 -241 c-6 -12 -14 -19 -17 -17 -2 3 1 15 7 27 6 12 14 19 17 17 2
-3 -1 -15 -7 -27z m691 -63 c-8 -8 -11 -7 -11 4 0 20 13 34 18 19 3 -7 -1 -17
-7 -23z m-927 -12 c28 -23 29 -25 18 -63 -8 -25 -21 -43 -37 -50 -35 -16 -36
-16 -29 13 8 33 -22 47 -42 20 -18 -24 -27 -14 -15 17 10 26 59 88 69 88 4 -1
20 -11 36 -25z m196 -45 c-16 -40 -23 -33 -9 9 6 18 14 30 17 27 2 -3 -1 -19
-8 -36z m250 17 c0 -25 -54 -96 -65 -85 -8 8 42 108 55 108 6 0 10 -10 10 -23z
m-1109 -80 c-15 -49 -35 -84 -83 -141 -34 -41 -64 -74 -65 -72 -7 7 33 118 64
179 35 66 94 130 101 109 2 -6 -6 -40 -17 -75z m610 -84 c-43 -58 -51 -66 -57
-60 -9 8 15 75 29 81 7 2 20 5 30 5 17 1 17 -1 -2 -26z m-700 -160 c-21 -41
-48 -70 -57 -60 -7 7 11 42 44 86 32 43 40 26 13 -26z"/>
<path d="M539 2952 c-81 -27 -155 -71 -195 -115 -37 -40 -40 -63 -13 -80 13
-8 24 -1 54 32 75 83 265 148 349 119 21 -7 45 -22 52 -33 21 -31 -9 -80 -86
-142 -58 -47 -167 -110 -175 -101 -2 2 7 42 20 89 24 91 21 119 -15 119 -28 0
-110 -252 -117 -360 -5 -67 -3 -80 9 -80 23 0 34 18 59 95 12 39 27 73 33 77
6 4 36 8 66 8 44 0 65 -6 97 -26 109 -71 94 -164 -47 -288 -42 -36 -133 -77
-173 -76 -18 0 -54 0 -80 0 -52 0 -106 23 -150 63 -50 48 -33 120 49 209 24
26 44 52 44 57 0 18 -58 -10 -104 -50 -61 -54 -81 -115 -60 -186 12 -39 23
-54 64 -81 114 -78 213 -98 321 -66 79 24 125 49 170 97 95 97 121 218 65 292
-16 20 -48 51 -72 68 l-44 31 40 22 c99 56 160 129 160 190 0 40 -33 90 -72
110 -49 26 -179 29 -249 6z"/>
<path d="M986 2712 c-3 -5 0 -17 8 -27 10 -15 16 -16 35 -6 12 7 20 18 18 24
-4 15 -53 22 -61 9z"/>
<path d="M1655 2710 c-4 -7 -1 -19 8 -27 12 -12 19 -13 36 -3 12 6 20 17 18
23 -5 16 -53 21 -62 7z"/>
<path d="M1187 1873 c-4 -3 -7 -28 -7 -55 0 -26 -4 -48 -9 -48 -5 0 -28 7 -51
15 -63 22 -82 19 -120 -20 -29 -30 -39 -35 -63 -29 -20 4 -34 1 -48 -12 -18
-16 -19 -35 -19 -508 0 -270 4 -497 8 -504 12 -17 613 -352 634 -352 9 0 20
-4 23 -10 10 -15 174 -12 222 5 38 13 600 323 631 347 8 7 12 39 12 94 0 68
-3 84 -15 84 -12 0 -15 -14 -15 -69 0 -83 18 -67 -225 -203 -302 -169 -373
-208 -379 -208 -3 0 -5 219 -4 486 l3 485 285 161 c157 88 292 161 300 162 13
1 15 -19 15 -124 0 -438 5 -580 20 -580 13 0 15 47 15 365 0 358 0 365 -21
375 -11 6 -32 9 -47 5 -23 -5 -34 1 -66 34 l-38 39 -47 -14 c-99 -30 -91 -33
-91 30 0 31 -4 56 -9 56 -21 0 -106 -43 -169 -84 -115 -76 -187 -155 -242
-266 l-32 -64 -31 62 c-60 123 -173 236 -306 305 -76 40 -105 50 -114 40z
m136 -97 c76 -45 160 -123 206 -190 17 -25 31 -47 31 -51 0 -3 -27 17 -61 45
-33 27 -64 50 -69 50 -30 0 -10 -30 75 -113 52 -51 95 -99 95 -105 0 -33 -69
-6 -267 104 -114 64 -237 133 -271 152 l-64 35 31 30 c29 30 31 30 73 18 24
-7 78 -28 121 -47 88 -38 97 -40 97 -19 0 8 -22 26 -50 40 -47 24 -50 27 -50
65 0 47 1 46 103 -14z m737 9 c0 -31 -4 -35 -55 -59 -74 -33 -185 -107 -240
-157 -25 -23 -45 -38 -45 -35 0 31 95 144 165 197 64 48 156 99 167 93 4 -3 8
-20 8 -39z m190 -50 c15 -16 20 -29 14 -34 -5 -5 -126 -75 -269 -155 -189
-106 -269 -146 -293 -146 l-33 0 33 47 c42 59 152 150 247 204 73 43 232 108
262 109 8 0 26 -11 39 -25z m-1070 -177 c129 -73 259 -146 288 -165 l52 -33 0
-474 c0 -271 -4 -477 -9 -480 -5 -3 -141 68 -303 158 l-293 165 -3 487 c-2
461 -1 486 15 480 10 -4 124 -66 253 -138z m540 -233 l0 -36 -82 3 c-71 3 -83
6 -86 21 -8 41 4 47 88 47 l80 0 0 -35z m-2 -103 l3 -33 -83 3 c-71 3 -83 6
-86 21 -8 39 3 45 85 44 l78 -2 3 -33z m0 -356 l2 -287 -82 3 -83 3 -3 275
c-1 151 -1 279 2 285 2 6 36 10 82 9 l79 -1 3 -287z m0 -354 l3 -33 -83 3
c-71 3 -83 6 -86 21 -8 42 4 48 85 45 l78 -3 3 -33z m2 -102 l0 -31 -82 3
c-82 3 -83 3 -86 31 l-3 27 85 0 86 0 0 -30z"/>
<path d="M1620 871 c0 -82 4 -152 9 -155 24 -15 31 26 29 160 -3 123 -5 139
-20 142 -17 3 -18 -9 -18 -147z"/>
<path d="M2052 1362 l-223 -126 3 -85 c2 -48 8 -86 14 -88 5 -2 107 52 225
119 l214 123 3 84 c2 46 -1 88 -5 92 -5 5 -109 -49 -231 -119z m204 17 c1 -32
-3 -43 -25 -58 -36 -24 -347 -201 -355 -201 -3 0 -6 21 -6 48 l0 47 188 107
c103 58 189 104 192 102 2 -3 5 -23 6 -45z"/>
</g>
</svg>
